<svg width="512" height="512" viewBox="0 0 512 512" fill="none" xmlns="http://www.w3.org/2000/svg">
<g filter="url(#filter0_d_2012_305)">
<path d="M312.175 144.986C326.652 119.912 358.714 111.321 383.789 125.797C408.935 140.315 417.551 172.47 403.033 197.616L303.07 370.756C288.573 395.867 256.464 404.47 231.354 389.973C206.244 375.475 197.64 343.367 212.138 318.256L312.175 144.986Z" fill="white" stroke="#E1E4E8" stroke-width="5"/>
<path d="M109.853 154.204C124.329 129.132 156.41 120.504 181.486 134.982C206.632 149.5 215.248 181.655 200.73 206.801C186.252 231.878 154.156 240.447 129.083 225.971C103.973 211.474 95.3563 179.314 109.853 154.204Z" fill="white" stroke="#E1E4E8" stroke-width="5"/>
</g>
<defs>
<filter id="filter0_d_2012_305" x="100.314" y="116.265" width="327.271" height="297.251" filterUnits="userSpaceOnUse" color-interpolation-filters="sRGB">
<feFlood flood-opacity="0" result="BackgroundImageFix"/>
<feColorMatrix in="SourceAlpha" type="matrix" values="0 0 0 0 0 0 0 0 0 0 0 0 0 0 0 0 0 0 127 0" result="hardAlpha"/>
<feOffset dx="11" dy="10"/>
<feGaussianBlur stdDeviation="2"/>
<feComposite in2="hardAlpha" operator="out"/>
<feColorMatrix type="matrix" values="0 0 0 0 0 0 0 0 0 0 0 0 0 0 0 0 0 0 0.25 0"/>
<feBlend mode="normal" in2="BackgroundImageFix" result="effect1_dropShadow_2012_305"/>
<feBlend mode="normal" in="SourceGraphic" in2="effect1_dropShadow_2012_305" result="shape"/>
</filter>
</defs>
</svg>
